<?xml version="1.0" standalone="no"?>
<!DOCTYPE svg PUBLIC "-//W3C//DTD SVG 20010904//EN"
 "http://www.w3.org/TR/2001/REC-SVG-20010904/DTD/svg10.dtd">
<svg version="1.0" xmlns="http://www.w3.org/2000/svg"
 width="512.000000pt" height="512.000000pt" viewBox="0 0 512.000000 512.000000"
 preserveAspectRatio="xMidYMid meet">
<metadata>
Created by potrace 1.14, written by Peter Selinger 2001-2017
</metadata>
<g transform="translate(0.000000,512.000000) scale(0.100000,-0.100000)"
fill="#000000" stroke="none">
<path d="M2379 5116 c-2 -2 -40 -6 -83 -10 -44 -4 -82 -9 -85 -11 -4 -2 -34
-7 -66 -10 -105 -12 -393 -89 -500 -135 -11 -4 -44 -18 -74 -30 -548 -223
-1026 -669 -1297 -1210 -84 -169 -188 -452 -207 -566 -3 -16 -10 -51 -17 -79
-32 -139 -47 -321 -44 -540 1 -121 5 -236 9 -255 3 -19 13 -78 21 -130 142
-877 749 -1630 1581 -1958 145 -58 332 -114 423 -128 19 -3 42 -7 50 -9 17 -5
45 -9 155 -25 99 -15 455 -20 550 -9 139 17 168 21 189 25 12 2 37 7 56 10
148 27 406 105 536 164 390 176 676 391 958 720 149 175 318 460 409 695 37
95 95 274 103 320 3 15 11 55 19 89 57 245 68 636 26 911 -109 712 -519 1353
-1118 1748 -115 76 -258 155 -358 199 -38 16 -83 36 -100 43 -97 43 -368 123
-475 139 -19 3 -44 8 -56 10 -12 2 -45 7 -74 11 -29 4 -62 9 -74 12 -24 5
-452 14 -457 9z m-339 -1406 c19 -5 97 -46 174 -90 76 -44 140 -80 143 -80 3
0 17 -8 31 -19 15 -10 47 -29 72 -43 25 -14 149 -85 275 -158 375 -217 519
-300 728 -421 109 -63 215 -129 234 -148 96 -92 104 -260 19 -362 -37 -44 -32
-41 -636 -390 -283 -163 -531 -306 -550 -318 -19 -12 -47 -27 -62 -33 -16 -7
-28 -16 -28 -20 0 -4 -4 -8 -8 -8 -4 0 -90 -47 -191 -105 -199 -113 -235 -125
-327 -106 -100 20 -184 98 -208 194 -8 31 -11 314 -10 973 0 852 2 932 18 968
58 134 193 203 326 166z"/>
<path d="M1928 3532 c-18 -10 -38 -28 -45 -42 -10 -20 -12 -222 -10 -943 l2
-919 28 -24 c52 -44 79 -36 296 90 108 63 212 123 231 134 19 10 148 84 285
164 138 79 281 162 318 184 38 21 82 47 99 57 16 9 120 69 231 133 111 64 210
125 219 137 20 26 23 65 6 102 -12 26 -11 26 -733 442 -181 105 -346 200 -365
211 -19 12 -46 27 -60 35 -14 7 -113 64 -220 127 -107 62 -207 116 -222 120
-18 6 -37 3 -60 -8z"/>
</g>
</svg>
